<svg version="1.1" id="Camada_1" xmlns="http://www.w3.org/2000/svg" xmlns:xlink="http://www.w3.org/1999/xlink" x="0px" y="0px" viewBox="0 0 675.3 154.1" style="enable-background:new 0 0 675.3 154.1;" xml:space="preserve">
<style type="text/css">
	.st0{fill:var(--logo-color, #fff);}
</style>
<g id="logo-full">
	<g>
		<g>
			<g class="logo-atm">
				<path class="st0" d="M675.3,154.1h-55.4v-13.7c0-34.3-27.9-62.3-62.3-62.3c-34.3,0-62.3,27.9-62.3,62.3v13.7h-27.5v-13.7
					c0-24,9.3-46.5,26.3-63.5c17-17,39.5-26.3,63.5-26.3s46.5,9.3,63.5,26.3c13.7,13.7,22.4,31,25.3,49.7h1.5V107
					c0-43.8-35.7-79.5-79.5-79.5H467.9V0h100.5c28.6,0,55.4,11.1,75.6,31.3c20.2,20.2,31.3,47.1,31.3,75.6V154.1z"></path>
			</g>
			<g class="logo-i">
				<rect x="427.7" y="0" class="st0" width="27.5" height="154.1"></rect>
			</g>
			<path class="st0 logo-s" d="M329,27.2H415V0H329c-28.3,0-54.9,11-75,31c-9.5,9.5-16.9,20.5-22.2,32.4c-3.8,8.6-6.4,17.8-7.8,27.2h27.6
				h120.6c-14,21.7-38.5,36.2-66.2,36.2h-85.9v27.2h85.9c28.3,0,54.9-11,75-31c9.5-9.5,16.9-20.5,22.1-32.4
				c3.8-8.6,6.4-17.8,7.8-27.2h-27.6H262.8C276.8,41.7,301.3,27.2,329,27.2z"></path>
		</g>
		<g class="logo-a">
			<g>
				<path class="st0" d="M207.4,154.1h-55.4v-13.7c0-34.3-27.9-62.3-62.3-62.3S27.5,106,27.5,140.3v13.7H0v-13.7
					c0-24,9.3-46.5,26.3-63.5c17-17,39.5-26.3,63.5-26.3s46.5,9.3,63.5,26.3c13.7,13.7,22.4,31,25.3,49.7h1.5V107
					c0-43.8-35.7-79.5-79.5-79.5H0V0h100.5c28.6,0,55.4,11.1,75.6,31.3s31.3,47.1,31.3,75.6V154.1z"></path>
			</g>
		</g>
	</g>
	<g class="logo-tm">
		<path class="st0" d="M647,2.7V0h11.8v2.7h-4.3v11.7h-3.2V2.7H647z"></path>
		<path class="st0" d="M664.3,0l3.4,9.9h0l3.2-9.9h4.5v14.4h-3V4.2h0l-3.5,10.2h-2.4l-3.5-10.1h0v10.1h-3V0H664.3z"></path>
	</g>
</g>
</svg>